<svg xmlns="http://www.w3.org/2000/svg" viewBox="0 0 800 600" fill="none">
  <rect width="800" height="600" fill="#1e293b" />
  <circle cx="400" cy="300" r="150" fill="#0f172a" stroke="#3b82f6" stroke-width="4" />
  <path d="M400 150 L400 300 L500 350" stroke="#3b82f6" stroke-width="4" stroke-linecap="round" />
  
  <!-- Development process elements -->
  <rect x="150" y="150" width="100" height="50" rx="10" fill="#1e40af" />
  <text x="200" y="180" font-family="Arial" font-size="16" fill="white" text-anchor="middle">Planning</text>
  
  <rect x="550" y="150" width="100" height="50" rx="10" fill="#1e40af" />
  <text x="600" y="180" font-family="Arial" font-size="16" fill="white" text-anchor="middle">Testing</text>
  
  <rect x="150" y="400" width="100" height="50" rx="10" fill="#1e40af" />
  <text x="200" y="430" font-family="Arial" font-size="16" fill="white" text-anchor="middle">Design</text>
  
  <rect x="550" y="400" width="100" height="50" rx="10" fill="#1e40af" />
  <text x="600" y="430" font-family="Arial" font-size="16" fill="white" text-anchor="middle">Deployment</text>
  
  <!-- Connecting lines -->
  <path d="M250 175 L350 175" stroke="#3b82f6" stroke-width="2" stroke-dasharray="5,5" />
  <path d="M450 175 L550 175" stroke="#3b82f6" stroke-width="2" stroke-dasharray="5,5" />
  <path d="M250 425 L350 425" stroke="#3b82f6" stroke-width="2" stroke-dasharray="5,5" />
  <path d="M450 425 L550 425" stroke="#3b82f6" stroke-width="2" stroke-dasharray="5,5" />
  
  <path d="M600 200 L600 400" stroke="#3b82f6" stroke-width="2" stroke-dasharray="5,5" />
  <path d="M200 200 L200 400" stroke="#3b82f6" stroke-width="2" stroke-dasharray="5,5" />
  
  <!-- Central Development -->
  <rect x="350" y="375" width="100" height="50" rx="10" fill="#8b5cf6" />
  <text x="400" y="405" font-family="Arial" font-size="16" fill="white" text-anchor="middle">Development</text>
  
  <!-- Title -->
  <text x="400" y="80" font-family="Arial" font-size="24" fill="#e2e8f0" text-anchor="middle" font-weight="bold">Software Development Process</text>
</svg>
